# xmcd CD database file
#
# Track frame offsets:
#	180
#	12534
#	25458
#	40049
#	53588
#	66345
#	78787
#	92195
#	103622
#	113903
#	126455
#	137945
#	151459
#	163956
#	177286
#	188829
#	202358
#	216985
#	229535
#	242134
#	256545
#	271869
#	285461
#	298177
#	313119
#	326639
#
# Disc length: 4504 seconds
#
# Revision: 0
# Processed by: cddbd v1.5.2PL0 Copyright (c) Steve Scherf et al.
# Submitted via: CDex 1.51
#
DISCID=8811961a
DTITLE=Country Trail - CD 2
DYEAR=1900
DGENRE=Country
TTITLE0=The Delmore Brothers - Hillbilly Boogie
TTITLE1=Paul Howard - Drinking all my Troubles away
TTITLE2=The Mississippi Sheiks - Sitting on top of the World
TTITLE3=Jimmy Heap - Dessau Waltz
TTITLE4=Carl Smith - Let old Mother nature
TTITLE5=Hank Williams - Move it on over
TTITLE6=Paul Howard - Cotton Picker´s Special
TTITLE7=Ernest Tubb - I ain´t tonking anymore
TTITLE8=Ann Jones - Give my a hundret Reasons
TTITLE9=Leon Mc Auliffe - Panhandie rag
TTITLE10=Roy Acuff - Fireball Mail
TTITLE11=Al Dexter - New broom Boogie
TTITLE12=The Delmore Brothers - Boogie Woggie Baby
TTITLE13=Carl Smith - I overlooked an Orchid
TTITLE14=Eddie Kirk - Candy Kisses
TTITLE15=Carter and Young - A lazy Farmer Boy
TTITLE16=Sam Mcgee - Railroad Blus
TTITLE17=Jack Gurthrie - Oklahoma Hills
TTITLE18=Sonny Hall - Better make up your mind
TTITLE19=Joe´s Acadians - Ammend la Nouville a Mamere
TTITLE20=Jimmy Rodgers - Rock all our Babies to Sleep
TTITLE21=Tommy Sargent - Steel Guitar Boogie
TTITLE22=Tex Ritter - I´m wasting my tears on you
TTITLE23=Bob Wills - San Antonio Rose
TTITLE24=Leon Mc Auliff - Blue Guitar Stomp
TTITLE25=Modern Mountaineers - Mary Jane
EXTD=
EXTT0=
EXTT1=
EXTT2=
EXTT3=
EXTT4=
EXTT5=
EXTT6=
EXTT7=
EXTT8=
EXTT9=
EXTT10=
EXTT11=
EXTT12=
EXTT13=
EXTT14=
EXTT15=
EXTT16=
EXTT17=
EXTT18=
EXTT19=
EXTT20=
EXTT21=
EXTT22=
EXTT23=
EXTT24=
EXTT25=
PLAYORDER=
